<svg width="101" height="101" viewBox="0 0 101 101" fill="none" xmlns="http://www.w3.org/2000/svg">
<path d="M69.8873 45.4404C63.4423 45.4404 62.5469 51.8732 62.5469 51.8732H76.249C76.249 51.8732 76.3363 45.4404 69.8873 45.4404Z" fill="black"/>
<path d="M38.7996 51.8731H26.653V63.0248H37.4067C37.5894 63.0248 37.8636 63.0289 38.1844 63.0248C39.9144 62.9842 43.1937 62.4806 43.1937 57.6033C43.1937 51.8142 38.7996 51.8731 38.7996 51.8731Z" fill="black"/>
<path d="M50.2257 0.452148C22.6103 0.452148 0.223633 22.8348 0.223633 50.4501C0.223633 78.0655 22.6103 100.452 50.2257 100.452C77.8369 100.452 100.224 78.0655 100.224 50.4501C100.224 22.8368 77.8349 0.452148 50.2257 0.452148ZM60.7499 31.1742H77.9628V36.3115H60.7499V31.1742ZM52.0491 58.1235C52.0491 70.857 38.7998 70.4367 38.7998 70.4367H26.6531H26.2978H17.0893V28.7173H26.2978H26.6531H38.7998C45.395 28.7173 50.6013 32.36 50.6013 39.8243C50.6013 47.2886 44.2356 47.7637 44.2356 47.7637C52.6278 47.7637 52.0491 58.1235 52.0491 58.1235ZM84.2494 57.4413H62.6302C62.6302 65.1898 69.9706 64.7025 69.9706 64.7025C76.9029 64.7025 76.6613 60.213 76.6613 60.213H84.0057C84.0057 72.1261 69.7249 71.3099 69.7249 71.3099C52.5953 71.3099 53.6979 55.36 53.6979 55.36C53.6979 55.36 53.6816 39.3329 69.7249 39.3329C86.6129 39.3329 84.2494 57.4413 84.2494 57.4413Z" fill="black"/>
<path d="M41.75 40.4721C41.75 36.1328 38.7996 36.1328 38.7996 36.1328H37.2361H26.653V45.4408H38.0463C40.0119 45.4408 41.75 44.8093 41.75 40.4721Z" fill="black"/>
</svg>
