<svg width="144" height="124" viewBox="0 0 144 124" fill="none" xmlns="http://www.w3.org/2000/svg">
<path d="M52.5265 57.3501C64.3021 83.9548 91.1627 101.173 124.484 103.535C119.6 97.6775 111.364 98.3025 108.882 89.5971C109.416 88.7904 109.72 87.8229 110.036 87.929C119.522 91.1064 129.016 94.1376 138.491 97.7968C141.698 99.0354 144.016 102.926 142.588 105.978C139.581 112.405 136.727 119.139 130.258 123.895C129.303 119.043 128.637 115.658 128.139 113.126C118.289 111.493 108.7 110.812 98.9955 108.113C76.0804 101.74 57.0075 86.5223 43.8641 60.3587C41.782 56.2139 39.4001 54.6707 36.0066 53.1119C21.7732 46.5732 10.6413 35.1626 3.33533 19.0388C0.678825 13.1757 -1.98497 6.69461 2.33671 0.657798C4.18642 12.1116 8.89681 21.1534 15.8164 29.2344C22.5941 37.1501 29.9346 43.5186 38.5037 45.8899C40.3703 38.268 41.2771 30.4345 44.1051 24.1805C46.9364 17.9191 51.0089 12.3333 55.7841 8.11067C60.6864 3.77534 67.8854 5.93561 73.3309 11.3368C78.7657 16.7271 81.1886 24.3223 79.348 31.8501C76.4556 43.6792 69.5541 51.1153 59.6916 55.0583C57.3797 55.9828 54.9099 56.5974 52.5265 57.3501ZM49.5192 47.8503C60.9449 45.885 67.3376 39.3695 70.9038 29.0513C72.0671 25.6853 72.6312 21.7918 68.6467 18.1814C65.2285 15.084 62.4192 16.4026 60.3438 18.4187C53.4781 25.0877 49.8473 34.247 49.5192 47.8503Z" fill="#D9F6F1"/>
</svg>
