<svg width="100" height="116" viewBox="0 0 100 116" fill="none" xmlns="http://www.w3.org/2000/svg">
<path d="M31.8858 51.5525C32.3454 73.2994 50.8632 91.1069 81.4704 99.3008C79.1983 94.068 71.1481 92.9273 72.2959 86.0773C73.1262 85.5909 73.8024 84.9421 74.0594 85.081C81.7655 89.246 89.5389 93.3058 97.0407 97.821C99.58 99.3493 100.212 102.645 97.6329 104.601C92.202 108.719 86.7938 113.091 78.756 115.315C79.8014 111.581 80.5309 108.975 81.0767 107.026C72.4046 103.92 63.5976 101.561 55.4918 97.7039C36.3522 88.5951 24.4054 73.7622 22.4732 52.0725C22.1671 48.6365 20.5316 47.0454 17.9444 45.2466C7.09286 37.7015 1.13642 27.1943 0.697496 13.9817C0.538036 9.17723 0.62003 3.91927 7.13886 0.341798C4.28745 9.07942 5.11451 16.6077 8.41987 23.8619C11.6573 30.9676 16.0494 37.0507 23.2115 40.4481C28.0424 35.2347 32.0494 29.6803 37.241 25.6541C42.4386 21.6231 48.5402 18.3272 54.7594 16.1648C61.1443 13.9447 67.0937 16.9219 70.08 21.9296C73.0607 26.9274 72.3027 32.9536 67.5343 38.1032C60.0412 46.1952 50.5169 50.2958 39.5923 51.2664C37.0314 51.4941 34.4454 51.4644 31.8858 51.5525ZM32.8556 44.0197C44.4658 44.7991 53.1383 41.2733 60.6624 34.4173C63.1168 32.1807 65.2157 29.442 62.8933 26.0277C60.9009 23.0986 57.7106 23.5181 54.9349 24.5902C45.7528 28.1365 38.6333 34.1322 32.8556 44.0197Z" fill="#A1F4D0"/>
</svg>
