<svg width="15" height="15" viewBox="0 0 15 15" fill="none" xmlns="http://www.w3.org/2000/svg">
<g clip-path="url(#clip0_1_1374)">
<path d="M7.7106 0.672729C7.54322 0.67277 7.38272 0.739277 7.26436 0.85763C7.14601 0.975981 7.07951 1.13649 7.07947 1.30387V8.50399L4.66582 6.09033C4.60721 6.03173 4.53762 5.98524 4.46105 5.95353C4.38447 5.92181 4.30239 5.90549 4.2195 5.9055C4.0521 5.90552 3.89157 5.97203 3.7732 6.09041C3.65485 6.20879 3.58836 6.36934 3.58838 6.53673C3.5884 6.70413 3.65491 6.86467 3.77329 6.98303L7.26425 10.4735C7.38266 10.5918 7.54321 10.6584 7.7106 10.6584C7.878 10.6584 8.03854 10.5918 8.15694 10.4735L11.6479 6.98242C11.7663 6.86406 11.8328 6.70352 11.8328 6.53613C11.8328 6.36873 11.7663 6.20818 11.648 6.0898C11.5296 5.97142 11.3691 5.90491 11.2017 5.90489C11.0343 5.90489 10.8737 5.97137 10.7554 6.08973L8.34174 8.50399V1.30387C8.3417 1.13649 8.27519 0.975981 8.15684 0.85763C8.03849 0.739277 7.87797 0.67277 7.7106 0.672729Z" fill="#212121"/>
<path d="M1.51395 9.01794C1.34656 9.01794 1.18603 9.08446 1.06767 9.20275C0.949307 9.32113 0.882812 9.48167 0.882812 9.64908V11.7288C0.883576 12.4177 1.15758 13.0782 1.64471 13.5653C2.13185 14.0525 2.79233 14.3264 3.48124 14.3272H11.9388C12.6277 14.3264 13.2882 14.0525 13.7753 13.5653C14.2624 13.0782 14.5365 12.4177 14.5372 11.7288V9.64908C14.5372 9.56614 14.5208 9.48409 14.4891 9.40755C14.4574 9.33092 14.411 9.26142 14.3523 9.20275C14.2937 9.14417 14.2241 9.09773 14.1476 9.06601C14.071 9.03429 13.9889 9.01794 13.9061 9.01794C13.8232 9.01794 13.7411 9.03429 13.6645 9.06601C13.588 9.09773 13.5184 9.14417 13.4598 9.20275C13.4012 9.26142 13.3547 9.33092 13.323 9.40755C13.2913 9.48409 13.2749 9.56614 13.2749 9.64908V11.7288C13.2745 12.083 13.1336 12.4227 12.8831 12.6731C12.6326 12.9236 12.293 13.0645 11.9388 13.0649H3.48124C3.12699 13.0645 2.78737 12.9236 2.53688 12.6731C2.28639 12.4227 2.14549 12.083 2.14508 11.7288V9.64908C2.1451 9.56614 2.1288 9.48409 2.09709 9.40755C2.06537 9.33092 2.01888 9.26134 1.96027 9.20275C1.90166 9.14409 1.83208 9.09765 1.7555 9.06593C1.67892 9.03421 1.59684 9.01794 1.51395 9.01794Z" fill="#212121"/>
</g>
<defs>
<clipPath id="clip0_1_1374">
<rect width="14.5647" height="14.5647" fill="white" transform="translate(0.427734 0.217651)"/>
</clipPath>
</defs>
</svg>
