<svg width="101" height="100" viewBox="0 0 101 100" fill="none" xmlns="http://www.w3.org/2000/svg">
<g clip-path="url(#clip0_251_11496)">
<path d="M50.5 100C22.89 100 0.5 77.61 0.5 50C0.5 22.39 22.89 0 50.5 0C78.11 0 100.5 22.39 100.5 50C100.5 77.61 78.11 100 50.5 100Z" fill="url(#paint0_linear_251_11496)"/>
<path d="M50.5 22.0201C59.61 22.0201 60.69 22.0501 64.29 22.2201C67.62 22.3701 69.43 22.9301 70.63 23.4001C72.22 24.0201 73.36 24.7601 74.55 25.9501C75.74 27.1401 76.48 28.2801 77.1 29.8701C77.57 31.0701 78.12 32.8801 78.28 36.2101C78.44 39.8101 78.48 40.8901 78.48 50.0001C78.48 59.1101 78.45 60.1901 78.28 63.7901C78.13 67.1201 77.57 68.9301 77.1 70.1301C76.48 71.7201 75.74 72.8601 74.55 74.0501C73.36 75.2401 72.22 75.9801 70.63 76.6001C69.43 77.0701 67.62 77.6201 64.29 77.7801C60.69 77.9401 59.61 77.9801 50.5 77.9801C41.39 77.9801 40.31 77.9501 36.71 77.7801C33.38 77.6301 31.57 77.0701 30.37 76.6001C28.78 75.9801 27.64 75.2401 26.45 74.0501C25.26 72.8601 24.52 71.7201 23.9 70.1301C23.43 68.9301 22.88 67.1201 22.72 63.7901C22.56 60.1901 22.52 59.1101 22.52 50.0001C22.52 40.8901 22.55 39.8101 22.72 36.2101C22.87 32.8801 23.43 31.0701 23.9 29.8701C24.52 28.2801 25.26 27.1401 26.45 25.9501C27.64 24.7601 28.78 24.0201 30.37 23.4001C31.57 22.9301 33.38 22.3801 36.71 22.2201C40.31 22.0501 41.39 22.0201 50.5 22.0201ZM50.5 15.8701C41.23 15.8701 40.07 15.9101 36.43 16.0801C32.8 16.2501 30.32 16.8201 28.14 17.6701C25.9 18.5301 23.99 19.7001 22.1 21.6001C20.2 23.5001 19.04 25.4001 18.16 27.6501C17.32 29.8201 16.74 32.3001 16.57 35.9401C16.4 39.5801 16.36 40.7401 16.36 50.0101C16.36 59.2801 16.4 60.4401 16.57 64.0801C16.74 67.7101 17.31 70.1901 18.16 72.3701C19.03 74.6001 20.2 76.5101 22.1 78.4001C24 80.3001 25.9 81.4601 28.15 82.3401C30.32 83.1801 32.8 83.7601 36.44 83.9301C40.08 84.1001 41.24 84.1401 50.51 84.1401C59.78 84.1401 60.94 84.1001 64.58 83.9301C68.21 83.7601 70.69 83.1901 72.87 82.3401C75.1 81.4701 77.01 80.3001 78.9 78.4001C80.8 76.5001 81.96 74.6001 82.84 72.3501C83.68 70.1801 84.26 67.7001 84.43 64.0601C84.6 60.4201 84.64 59.2601 84.64 49.9901C84.64 40.7201 84.6 39.5601 84.43 35.9201C84.26 32.2901 83.69 29.8101 82.84 27.6301C81.97 25.4001 80.8 23.4901 78.9 21.6001C77 19.7001 75.1 18.5401 72.85 17.6601C70.68 16.8201 68.2 16.2401 64.56 16.0701C60.93 15.9101 59.77 15.8701 50.5 15.8701Z" fill="white"/>
<path d="M50.5 32.4702C40.82 32.4702 32.97 40.3202 32.97 50.0002C32.97 59.6802 40.82 67.5302 50.5 67.5302C60.18 67.5302 68.03 59.6802 68.03 50.0002C68.03 40.3202 60.18 32.4702 50.5 32.4702ZM50.5 61.3802C44.22 61.3802 39.12 56.2902 39.12 50.0002C39.12 43.7102 44.22 38.6202 50.5 38.6202C56.78 38.6202 61.88 43.7102 61.88 50.0002C61.88 56.2902 56.78 61.3802 50.5 61.3802Z" fill="white"/>
<path d="M68.72 35.8802C70.9844 35.8802 72.82 34.0445 72.82 31.7802C72.82 29.5158 70.9844 27.6802 68.72 27.6802C66.4556 27.6802 64.62 29.5158 64.62 31.7802C64.62 34.0445 66.4556 35.8802 68.72 35.8802Z" fill="white"/>
</g>
<defs>
<linearGradient id="paint0_linear_251_11496" x1="15.1446" y1="85.3553" x2="85.8553" y2="14.6446" gradientUnits="userSpaceOnUse">
<stop stop-color="#FFD521"/>
<stop offset="0.0551048" stop-color="#FFD020"/>
<stop offset="0.1241" stop-color="#FEC01E"/>
<stop offset="0.2004" stop-color="#FCA71B"/>
<stop offset="0.2821" stop-color="#FA8316"/>
<stop offset="0.3681" stop-color="#F85510"/>
<stop offset="0.4563" stop-color="#F51E09"/>
<stop offset="0.5" stop-color="#F30005"/>
<stop offset="0.5035" stop-color="#F20007"/>
<stop offset="0.5966" stop-color="#E1003B"/>
<stop offset="0.6879" stop-color="#D30067"/>
<stop offset="0.7757" stop-color="#C70088"/>
<stop offset="0.8589" stop-color="#BF00A0"/>
<stop offset="0.9357" stop-color="#BB00AF"/>
<stop offset="1" stop-color="#B900B4"/>
</linearGradient>
<clipPath id="clip0_251_11496">
<rect width="100" height="100" fill="white" transform="translate(0.5)"/>
</clipPath>
</defs>
</svg>
