<svg width="99" height="98" viewBox="0 0 99 98" fill="none" xmlns="http://www.w3.org/2000/svg">
<g filter="url(#filter0_d_2064_43366)">
<circle cx="45.0046" cy="44.3571" r="26.3571" fill="#3E3E3E"/>
<circle cx="45.0046" cy="44.3571" r="25.2589" stroke="#3E3E3E" stroke-width="2.19643"/>
</g>
<path d="M52.3023 37.6083H52.3156M38.3687 31.6367H51.6388C55.3032 31.6367 58.2738 34.6073 58.2738 38.2718V51.5419C58.2738 55.2063 55.3032 58.1769 51.6388 58.1769H38.3687C34.7043 58.1769 31.7336 55.2063 31.7336 51.5419V38.2718C31.7336 34.6073 34.7043 31.6367 38.3687 31.6367ZM50.3117 44.0709C50.4755 45.1753 50.2868 46.3032 49.7726 47.2942C49.2584 48.2852 48.4448 49.0888 47.4475 49.5908C46.4502 50.0927 45.3201 50.2675 44.2178 50.0901C43.1155 49.9127 42.0972 49.3923 41.3077 48.6028C40.5183 47.8134 39.9978 46.7951 39.8205 45.6928C39.6431 44.5905 39.8178 43.4603 40.3198 42.463C40.8217 41.4658 41.6254 40.6521 42.6164 40.1379C43.6074 39.6237 44.7353 39.4351 45.8397 39.5988C46.9662 39.7659 48.0091 40.2908 48.8144 41.0961C49.6197 41.9014 50.1447 42.9443 50.3117 44.0709Z" stroke="white" stroke-width="2.65402" stroke-linecap="round" stroke-linejoin="round"/>
<defs>
<filter id="filter0_d_2064_43366" x="0.756552" y="0.109091" width="97.4415" height="97.4421" filterUnits="userSpaceOnUse" color-interpolation-filters="sRGB">
<feFlood flood-opacity="0" result="BackgroundImageFix"/>
<feColorMatrix in="SourceAlpha" type="matrix" values="0 0 0 0 0 0 0 0 0 0 0 0 0 0 0 0 0 0 127 0" result="hardAlpha"/>
<feOffset dx="4.47273" dy="4.47273"/>
<feGaussianBlur stdDeviation="11.1818"/>
<feComposite in2="hardAlpha" operator="out"/>
<feColorMatrix type="matrix" values="0 0 0 0 0 0 0 0 0 0 0 0 0 0 0 0 0 0 0.25 0"/>
<feBlend mode="normal" in2="BackgroundImageFix" result="effect1_dropShadow_2064_43366"/>
<feBlend mode="normal" in="SourceGraphic" in2="effect1_dropShadow_2064_43366" result="shape"/>
</filter>
</defs>
</svg>
