<svg width="99" height="98" viewBox="0 0 99 98" fill="none" xmlns="http://www.w3.org/2000/svg">
<g filter="url(#filter0_d_2064_43369)">
<circle cx="45.0046" cy="44.6423" r="26.3571" fill="#3E3E3E"/>
<circle cx="45.0046" cy="44.6423" r="25.2589" stroke="#3E3E3E" stroke-width="2.19643"/>
</g>
<path d="M49.8401 40.0552C51.6605 40.0552 53.4063 40.7784 54.6936 42.0656C55.9808 43.3528 56.7039 45.0987 56.7039 46.9191V54.9269H52.128V46.9191C52.128 46.3123 51.887 45.7303 51.4579 45.3013C51.0288 44.8722 50.4469 44.6311 49.8401 44.6311C49.2333 44.6311 48.6513 44.8722 48.2223 45.3013C47.7932 45.7303 47.5521 46.3123 47.5521 46.9191V54.9269H42.9762V46.9191C42.9762 45.0987 43.6994 43.3528 44.9866 42.0656C46.2738 40.7784 48.0197 40.0552 49.8401 40.0552Z" stroke="white" stroke-width="2.28795" stroke-linecap="round" stroke-linejoin="round"/>
<path d="M38.4004 41.1992H33.8245V54.9269H38.4004V41.1992Z" stroke="white" stroke-width="2.28795" stroke-linecap="round" stroke-linejoin="round"/>
<path d="M36.1124 37.7673C37.376 37.7673 38.4004 36.743 38.4004 35.4794C38.4004 34.2158 37.376 33.1914 36.1124 33.1914C34.8488 33.1914 33.8245 34.2158 33.8245 35.4794C33.8245 36.743 34.8488 37.7673 36.1124 37.7673Z" stroke="white" stroke-width="2.28795" stroke-linecap="round" stroke-linejoin="round"/>
<defs>
<filter id="filter0_d_2064_43369" x="0.756552" y="0.394248" width="97.4415" height="97.4421" filterUnits="userSpaceOnUse" color-interpolation-filters="sRGB">
<feFlood flood-opacity="0" result="BackgroundImageFix"/>
<feColorMatrix in="SourceAlpha" type="matrix" values="0 0 0 0 0 0 0 0 0 0 0 0 0 0 0 0 0 0 127 0" result="hardAlpha"/>
<feOffset dx="4.47273" dy="4.47273"/>
<feGaussianBlur stdDeviation="11.1818"/>
<feComposite in2="hardAlpha" operator="out"/>
<feColorMatrix type="matrix" values="0 0 0 0 0 0 0 0 0 0 0 0 0 0 0 0 0 0 0.25 0"/>
<feBlend mode="normal" in2="BackgroundImageFix" result="effect1_dropShadow_2064_43369"/>
<feBlend mode="normal" in="SourceGraphic" in2="effect1_dropShadow_2064_43369" result="shape"/>
</filter>
</defs>
</svg>
