<svg width="1187" height="533" viewBox="0 0 1187 533" fill="none" xmlns="http://www.w3.org/2000/svg">
<g filter="url(#filter0_d_45_34300)">
<path d="M606.301 333.557C636.614 333.557 654.445 354.954 659.794 397.748C660.24 399.977 660.686 403.989 661.132 409.784C662.023 415.133 662.692 419.368 663.137 422.489C663.583 425.609 664.252 428.061 665.143 429.844C665.143 431.627 665.589 433.41 666.481 435.193C667.818 438.759 670.047 440.542 673.167 440.542C681.637 440.542 692.559 438.314 705.932 433.856C719.305 429.398 726.66 427.169 727.998 427.169C741.371 427.169 748.057 433.856 748.057 447.229C748.057 457.036 741.371 464.168 727.998 468.626C703.926 476.65 685.203 480.662 671.83 480.662C642.855 480.662 625.47 454.807 619.675 403.097C617 383.483 612.542 373.676 606.301 373.676C592.928 373.676 575.989 389.278 555.483 420.483C547.905 432.073 537.875 442.771 525.393 452.578C512.912 462.385 500.207 467.289 487.28 467.289C474.352 467.289 464.1 462.831 456.521 453.916C448.943 445 444.04 436.53 441.811 428.507C439.136 419.591 434.901 400.2 429.106 370.333C423.311 340.466 419.299 324.641 417.071 322.858C415.287 321.075 413.727 320.184 412.39 320.184C406.149 320.184 400.577 324.196 395.673 332.219C391.216 339.798 386.089 350.496 380.294 364.315C374.499 378.134 368.927 392.399 363.578 407.109C358.674 421.374 354.662 432.073 351.542 439.205C348.421 445.892 344.187 453.693 338.837 462.608C329.03 479.102 315.657 487.349 298.718 487.349C287.128 487.349 277.321 483.337 269.297 475.313C261.273 467.289 255.032 457.036 250.574 444.554C242.55 419.591 238.315 394.182 237.87 368.327C237.87 342.026 235.195 321.967 229.846 308.148C224.942 293.883 218.924 286.751 211.792 286.751C188.612 286.751 171.226 301.015 159.636 329.545C154.287 343.364 148.492 362.978 142.251 388.387C133.336 422.711 112.161 447.006 78.7285 461.271C71.5961 465.283 64.2408 467.289 56.6627 467.289C43.2895 467.289 36.6029 460.602 36.6029 447.229C36.6029 438.759 43.2895 431.85 56.6627 426.501C62.012 424.272 64.9095 423.157 65.3553 423.157C66.2468 422.711 68.0299 421.82 70.7045 420.483C73.3792 419.145 75.1623 418.254 76.0538 417.808C76.9454 416.916 78.5056 415.802 80.7344 414.465C83.4091 412.682 85.1922 411.121 86.0837 409.784C87.421 408.001 88.9813 405.995 90.7643 403.766C92.9932 401.537 94.5534 399.308 95.445 397.08C99.0112 390.393 102.132 381.7 104.806 371.002C107.481 360.303 109.933 351.388 112.161 344.255C114.39 337.123 118.625 326.202 124.866 311.491C131.107 296.335 137.571 284.967 144.257 277.389C150.944 269.811 160.082 262.902 171.672 256.661C183.708 249.974 198.196 246.631 215.135 246.631C232.52 246.631 247.231 256.661 259.267 276.721C271.748 296.335 277.989 326.424 277.989 366.99C277.989 381.255 279.549 398.194 282.67 417.808C286.236 437.422 291.585 447.229 298.718 447.229C302.284 447.229 306.073 442.548 310.085 433.187C314.097 423.38 317.44 415.133 320.115 408.447C322.789 401.314 325.91 392.845 329.476 383.038C342.849 345.147 356 318.623 368.927 303.467C381.854 287.865 396.342 280.064 412.39 280.064C431.112 280.064 444.486 288.534 452.51 305.473C459.196 320.184 463.877 334.671 466.551 348.936C475.467 401.091 481.931 427.169 485.943 427.169C499.316 427.169 516.255 411.567 536.761 380.363C544.339 368.773 554.369 358.074 566.85 348.267C579.332 338.46 592.482 333.557 606.301 333.557ZM951.776 480.662C928.15 480.662 909.873 469.963 896.946 448.566C884.464 427.169 878.223 402.652 878.223 375.014C878.223 360.749 884.91 353.617 898.283 353.617C911.656 353.617 918.343 361.641 918.343 377.688C918.343 393.736 921.463 408.224 927.704 421.151C933.945 434.079 941.523 440.542 950.438 440.542C959.8 440.542 971.167 438.314 984.54 433.856C997.913 429.398 1005.27 427.169 1006.61 427.169C1019.98 427.169 1026.67 433.856 1026.67 447.229C1026.67 457.036 1019.98 464.168 1006.61 468.626C982.534 476.65 964.257 480.662 951.776 480.662ZM818.044 47.3702L817.375 58.7375C812.026 112.23 808.46 151.904 806.677 177.759C805.339 203.614 804.671 234.818 804.671 271.371C804.671 307.479 805.785 331.105 808.014 342.249C818.712 318.623 836.989 296.78 862.844 276.721C888.699 256.661 920.572 246.631 958.462 246.631C971.836 246.631 978.522 253.318 978.522 266.691C978.522 280.064 971.836 286.751 958.462 286.751C940.186 286.751 923.246 290.094 907.644 296.78C892.488 303.467 880.452 311.714 871.537 321.521C854.597 340.243 843.899 356.96 839.441 371.67C838.549 374.345 836.989 380.14 834.76 389.056C832.977 397.525 831.64 403.097 830.748 405.772C830.303 408.893 828.742 412.904 826.068 417.808C821.61 426.278 814.478 430.513 804.671 430.513C795.309 430.513 786.171 415.802 777.255 386.381C768.786 356.514 764.551 329.991 764.551 306.81C764.551 283.63 764.551 262.902 764.551 244.625C764.997 225.902 765.22 211.192 765.22 200.493C765.665 189.349 766.557 175.753 767.894 159.705C769.232 143.657 769.9 133.182 769.9 128.278C770.792 107.327 773.466 80.1346 777.924 46.7016C779.261 33.7741 785.948 27.3104 797.984 27.3104C811.357 27.3104 818.044 33.997 818.044 47.3702ZM1116.97 436.53C1124.11 436.53 1131.46 439.651 1139.04 445.892C1146.62 452.133 1150.41 458.819 1150.41 465.952C1150.41 473.084 1147.29 478.433 1141.04 481.999C1135.25 485.566 1128.79 487.349 1121.65 487.349C1114.52 487.349 1108.5 484.228 1103.6 477.987C1099.14 471.301 1096.91 464.168 1096.91 456.59C1096.91 443.217 1103.6 436.53 1116.97 436.53Z" fill="#121212"/>
</g>
<defs>
<filter id="filter0_d_45_34300" x="0.641338" y="0.395457" width="1185.73" height="531.962" filterUnits="userSpaceOnUse" color-interpolation-filters="sRGB">
<feFlood flood-opacity="0" result="BackgroundImageFix"/>
<feColorMatrix in="SourceAlpha" type="matrix" values="0 0 0 0 0 0 0 0 0 0 0 0 0 0 0 0 0 0 127 0" result="hardAlpha"/>
<feOffset dy="9.04709"/>
<feGaussianBlur stdDeviation="17.9811"/>
<feComposite in2="hardAlpha" operator="out"/>
<feColorMatrix type="matrix" values="0 0 0 0 0.150977 0 0 0 0 0.150977 0 0 0 0 0.150977 0 0 0 0.25 0"/>
<feBlend mode="normal" in2="BackgroundImageFix" result="effect1_dropShadow_45_34300"/>
<feBlend mode="normal" in="SourceGraphic" in2="effect1_dropShadow_45_34300" result="shape"/>
</filter>
</defs>
</svg>
