<svg width="593" height="266" viewBox="0 0 593 266" fill="none" xmlns="http://www.w3.org/2000/svg">
<g filter="url(#filter0_d_45_34300)">
<path d="M302.922 166.517C318.066 166.517 326.974 177.206 329.646 198.586C329.869 199.699 330.092 201.704 330.314 204.599C330.76 207.271 331.094 209.387 331.317 210.946C331.539 212.505 331.873 213.729 332.319 214.62C332.319 215.511 332.541 216.402 332.987 217.293C333.655 219.074 334.768 219.965 336.327 219.965C340.559 219.965 346.015 218.852 352.696 216.625C359.377 214.398 363.051 213.284 363.72 213.284C370.401 213.284 373.741 216.625 373.741 223.306C373.741 228.205 370.401 231.768 363.72 233.995C351.694 238.004 342.34 240.008 335.659 240.008C321.184 240.008 312.498 227.091 309.603 201.258C308.267 191.459 306.04 186.56 302.922 186.56C296.241 186.56 287.779 194.354 277.534 209.943C273.748 215.734 268.738 221.079 262.502 225.978C256.266 230.877 249.919 233.327 243.461 233.327C237.003 233.327 231.881 231.1 228.095 226.646C224.309 222.192 221.859 217.961 220.746 213.952C219.409 209.498 217.294 199.811 214.399 184.89C211.503 169.969 209.499 162.063 208.386 161.172C207.495 160.281 206.715 159.836 206.047 159.836C202.929 159.836 200.146 161.84 197.696 165.849C195.469 169.635 192.908 174.979 190.013 181.883C187.118 188.787 184.334 195.913 181.662 203.262C179.212 210.389 177.207 215.734 175.649 219.297C174.09 222.637 171.974 226.535 169.302 230.989C164.402 239.229 157.721 243.349 149.259 243.349C143.468 243.349 138.569 241.344 134.56 237.336C130.552 233.327 127.434 228.205 125.207 221.969C121.198 209.498 119.083 196.804 118.86 183.887C118.86 170.748 117.524 160.727 114.851 153.823C112.402 146.696 109.395 143.133 105.832 143.133C94.2514 143.133 85.566 150.26 79.7758 164.512C77.1034 171.416 74.2083 181.215 71.0905 193.909C66.6365 211.057 56.0582 223.194 39.3556 230.321C35.7924 232.325 32.1178 233.327 28.3319 233.327C21.6509 233.327 18.3104 229.987 18.3104 223.306C18.3104 219.074 21.6509 215.622 28.3319 212.95C31.0043 211.836 32.4519 211.28 32.6746 211.28C33.12 211.057 34.0108 210.612 35.347 209.943C36.6832 209.275 37.574 208.83 38.0194 208.607C38.4648 208.162 39.2442 207.605 40.3578 206.937C41.694 206.046 42.5848 205.267 43.0302 204.599C43.6983 203.708 44.4777 202.706 45.3685 201.592C46.482 200.479 47.2615 199.365 47.7069 198.252C49.4885 194.911 51.0474 190.569 52.3836 185.224C53.7198 179.879 54.9447 175.425 56.0582 171.862C57.1717 168.298 59.2873 162.842 62.4051 155.493C65.523 147.921 68.7521 142.242 72.0926 138.456C75.4332 134.671 79.9985 131.219 85.7887 128.101C91.8017 124.76 99.0395 123.09 107.502 123.09C116.187 123.09 123.537 128.101 129.549 138.122C135.785 147.921 138.903 162.954 138.903 183.219C138.903 190.346 139.682 198.808 141.241 208.607C143.023 218.406 145.695 223.306 149.259 223.306C151.04 223.306 152.933 220.967 154.937 216.29C156.942 211.391 158.612 207.271 159.948 203.931C161.284 200.367 162.843 196.136 164.625 191.237C171.306 172.307 177.876 159.056 184.334 151.484C190.792 143.69 198.03 139.793 206.047 139.793C215.401 139.793 222.082 144.024 226.09 152.487C229.431 159.836 231.769 167.074 233.105 174.2C237.559 200.256 240.789 213.284 242.793 213.284C249.474 213.284 257.937 205.489 268.181 189.9C271.967 184.11 276.978 178.765 283.213 173.866C289.449 168.967 296.018 166.517 302.922 166.517ZM475.515 240.008C463.712 240.008 454.582 234.663 448.123 223.974C441.888 213.284 438.77 201.035 438.77 187.228C438.77 180.102 442.11 176.538 448.791 176.538C455.472 176.538 458.813 180.547 458.813 188.564C458.813 196.581 460.372 203.819 463.49 210.278C466.607 216.736 470.393 219.965 474.847 219.965C479.524 219.965 485.203 218.852 491.884 216.625C498.565 214.398 502.24 213.284 502.908 213.284C509.589 213.284 512.929 216.625 512.929 223.306C512.929 228.205 509.589 231.768 502.908 233.995C490.882 238.004 481.751 240.008 475.515 240.008ZM408.705 23.5428L408.371 29.2216C405.699 55.9458 403.917 75.7661 403.026 88.6828C402.358 101.599 402.024 117.189 402.024 135.45C402.024 153.489 402.581 165.292 403.694 170.859C409.039 159.056 418.17 148.144 431.087 138.122C444.003 128.101 459.926 123.09 478.856 123.09C485.537 123.09 488.878 126.431 488.878 133.112C488.878 139.793 485.537 143.133 478.856 143.133C469.725 143.133 461.263 144.803 453.468 148.144C445.896 151.484 439.883 155.604 435.429 160.504C426.967 169.857 421.622 178.209 419.395 185.558C418.949 186.894 418.17 189.789 417.056 194.243C416.166 198.474 415.498 201.258 415.052 202.594C414.829 204.153 414.05 206.158 412.714 208.607C410.487 212.839 406.924 214.954 402.024 214.954C397.347 214.954 392.782 207.605 388.328 192.907C384.097 177.986 381.981 164.735 381.981 153.155C381.981 141.574 381.981 131.219 381.981 122.088C382.204 112.735 382.315 105.385 382.315 100.041C382.538 94.473 382.983 87.6806 383.651 79.6634C384.319 71.6462 384.653 66.4127 384.653 63.963C385.099 53.496 386.435 39.9113 388.662 23.2087C389.33 16.7504 392.671 13.5212 398.684 13.5212C405.365 13.5212 408.705 16.8617 408.705 23.5428ZM558.045 217.961C561.608 217.961 565.283 219.52 569.069 222.637C572.855 225.755 574.748 229.096 574.748 232.659C574.748 236.222 573.189 238.895 570.071 240.676C567.176 242.458 563.947 243.349 560.384 243.349C556.82 243.349 553.814 241.79 551.364 238.672C549.137 235.331 548.024 231.768 548.024 227.982C548.024 221.301 551.364 217.961 558.045 217.961Z" fill="#121212"/>
</g>
<defs>
<filter id="filter0_d_45_34300" x="0.344444" y="0.0746675" width="592.37" height="265.76" filterUnits="userSpaceOnUse" color-interpolation-filters="sRGB">
<feFlood flood-opacity="0" result="BackgroundImageFix"/>
<feColorMatrix in="SourceAlpha" type="matrix" values="0 0 0 0 0 0 0 0 0 0 0 0 0 0 0 0 0 0 127 0" result="hardAlpha"/>
<feOffset dy="4.51977"/>
<feGaussianBlur stdDeviation="8.98305"/>
<feComposite in2="hardAlpha" operator="out"/>
<feColorMatrix type="matrix" values="0 0 0 0 0.150977 0 0 0 0 0.150977 0 0 0 0 0.150977 0 0 0 0.25 0"/>
<feBlend mode="normal" in2="BackgroundImageFix" result="effect1_dropShadow_45_34300"/>
<feBlend mode="normal" in="SourceGraphic" in2="effect1_dropShadow_45_34300" result="shape"/>
</filter>
</defs>
</svg>
