<svg width="115" height="43" viewBox="0 0 115 43" fill="none" xmlns="http://www.w3.org/2000/svg">
<path d="M1.03802 0.509515C1.12931 3.55328 0.665119 5.21597 1.29701 6.08358C3.65018 9.31436 6.0032 12.7053 9.01087 15.2703C17.1279 22.1928 26.8161 25.9952 37.1756 28.2299C54.7974 32.0313 72.3496 30.8763 89.8865 27.7113C91.7594 27.3734 93.6502 27.1315 95.5376 26.8806C95.6551 26.865 95.8148 27.1619 96.1583 27.5332C94.3171 29.9177 92.2959 32.2875 90.5785 34.86C89.6662 36.2266 88.9465 37.909 88.7777 39.5165C88.6698 40.5453 89.4702 42.2718 90.3245 42.6535C91.4612 43.1613 93.1388 42.9357 94.4073 42.5068C95.2853 42.2099 95.9219 41.0815 96.5691 40.2492C101.637 33.732 106.813 27.2928 111.694 20.6376C115.878 14.9318 114.757 12.0372 108.32 9.69168C101.732 7.29131 95.2723 4.53962 88.7257 2.02278C86.7001 1.24414 84.5726 0.731046 82.2195 0.0133197C82.2642 4.12278 88.6218 9.64996 101.292 16.5948C89.4537 20.5368 77.9418 21.6182 66.3929 22.2641C54.835 22.9107 43.4278 21.7391 32.1761 18.8164C20.6309 15.8175 11.1507 9.18246 1.03802 0.509515Z" fill="#FFE5A4"/>
</svg>
