<svg width="100" height="116" viewBox="0 0 100 116" fill="none" xmlns="http://www.w3.org/2000/svg">
<path d="M31.6918 64.3213C32.1514 42.5743 50.6692 24.7669 81.2764 16.573C79.0043 21.8058 70.9541 22.9465 72.1019 29.7964C72.9322 30.2829 73.6084 30.9317 73.8654 30.7927C81.5715 26.6278 89.3449 22.568 96.8467 18.0528C99.386 16.5244 100.018 13.2287 97.4389 11.2728C92.008 7.15502 86.5998 2.78284 78.562 0.559124C79.6074 4.29316 80.3369 6.89898 80.8827 8.84753C72.2106 11.9535 63.4036 14.3123 55.2978 18.1699C36.1582 27.2787 24.2114 42.1116 22.2792 63.8013C21.9731 67.2373 20.3376 68.8284 17.7504 70.6272C6.89886 78.1723 0.94242 88.6795 0.503495 101.892C0.344036 106.697 0.42603 111.955 6.94486 115.532C4.09345 106.794 4.92051 99.2661 8.22587 92.0119C11.4633 84.9062 15.8554 78.8231 23.0175 75.4257C27.8484 80.6391 31.8554 86.1935 37.047 90.2197C42.2446 94.2507 48.3462 97.5466 54.5654 99.7089C60.9503 101.929 66.8997 98.9519 69.886 93.9441C72.8667 88.9464 72.1087 82.9202 67.3403 77.7706C59.8472 69.6786 50.3229 65.578 39.3983 64.6074C36.8374 64.3797 34.2514 64.4094 31.6918 64.3213ZM32.6616 71.8541C44.2718 71.0747 52.9443 74.6005 60.4684 81.4565C62.9228 83.6931 65.0217 86.4318 62.6993 89.8461C60.7069 92.7752 57.5166 92.3557 54.7409 91.2836C45.5588 87.7373 38.4393 81.7416 32.6616 71.8541Z" fill="#FDC8A2"/>
</svg>
