<svg width="93" height="86" viewBox="0 0 93 86" fill="none" xmlns="http://www.w3.org/2000/svg">
<path d="M44.534 42.8426C47.7431 40.3233 50.0084 37.171 51.6466 33.475C53.0237 30.3678 52.7261 30.2014 56.4118 31.5665C62.0739 33.6639 67.1377 36.0772 71.225 40.522C74.1231 43.6737 76.1534 47.277 75.9745 51.7685C75.7801 56.6479 71.8171 66.4642 67.8432 69.4914C66.674 65.281 63.5944 61.2725 61.2372 57.6579C59.4386 54.8998 54.2254 47.6593 52.5998 54.869C51.5062 59.7197 56.334 66.2744 57.9939 70.6598C58.8591 72.946 59.7381 75.2501 60.2518 77.645C60.7544 79.9885 60.3653 82.6651 62.2017 84.462C65.3021 87.4957 72.1914 84.4413 75.9294 83.9136C79.7864 83.3692 89.4348 83.796 91.4727 79.4242C96.2714 69.1298 73.8205 75.8651 73.3806 74.5976C72.838 73.0344 80.0342 66.9174 81.2014 65.2655C84.3892 60.7542 86.38 55.2427 86.2681 49.6995C86.0507 38.9437 77.507 30.3627 68.5831 25.6185C66.1212 24.3098 63.5194 23.247 60.8853 22.3319C58.7711 21.5973 55.3834 21.3259 53.5863 20.0277C51.9569 18.8507 51.4648 16.6267 50.5426 14.9094C49.0661 12.1599 47.2807 10.1886 44.8195 8.26285C36.8416 2.02102 25.6278 -1.2735 15.4989 1.05648C13.2996 1.56234 10.0096 2.57922 9.00528 4.88558C8.47161 6.11125 8.4983 9.27677 10.4172 9.09492C10.9461 9.0448 12.1629 6.62054 12.91 6.18349C14.8609 5.04237 18.2498 5.32385 20.3786 5.50924C27.4798 6.12807 42.2464 10.0738 44.1701 18.37C43.9867 17.5789 32.076 18.4072 30.7809 18.5107C26.6959 18.837 22.4554 19.3751 18.536 20.6555C11.0715 23.0942 2.14737 28.3708 0.743508 36.7676C-2.67258 57.2 35.8855 51.5393 44.534 42.8426C42.8525 44.5337 47.8758 40.2192 44.534 42.8426ZM9.18984 40.1857C3.53491 35.9244 21.177 29.3245 23.3274 28.8439C26.5328 28.1275 42.8219 25.4192 44.9984 29.0428C46.0078 30.7232 40.5132 36.2887 39.2049 37.3632C36.678 39.4388 33.1222 40.9118 30.0154 41.865C25.9766 43.1042 11.3922 45.322 9.18984 40.1857C9.75753 41.5098 8.14122 39.3956 9.18984 40.1857Z" fill="#FCB888"/>
</svg>
