<svg width="56" height="108" viewBox="0 0 56 108" fill="none" xmlns="http://www.w3.org/2000/svg">
<path d="M10.377 96.4815C10.8698 96.6787 11.0576 96.8271 11.2337 96.814C25.5272 95.7518 37.5895 90.1487 46.8056 78.9848C49.1471 76.1485 50.6844 72.7944 51.5002 69.1568C53.2595 61.3121 49.9122 53.6074 42.9805 49.5856C39.3915 47.5032 35.63 46.0768 31.3456 46.4773C30.2168 48.0782 29.2049 49.7268 27.9814 51.1993C26.0511 53.5227 23.5822 54.9726 20.4839 55.1032C18.1529 55.2015 16.3926 54.3514 15.9142 52.8359C15.3106 50.9237 16.1602 49.2922 17.5984 48.3045C19.6103 46.923 21.845 45.8252 24.0841 44.8317C25.5368 44.1872 27.1673 43.9454 28.6847 43.5322C31.0778 36.2779 26.1638 30.158 17.0603 29.1072C16.3312 29.9246 15.6044 30.8472 14.7687 31.6574C11.7607 34.5735 8.21941 36.1961 3.96838 35.6236C2.37099 35.4084 0.780464 34.8197 0.219415 33.0029C-0.213676 31.6003 0.651029 29.8997 2.46117 28.7279C5.33652 26.8666 8.59305 26.181 11.9416 25.8603C13.1079 25.7486 14.2817 25.7163 15.4 25.6508C19.5151 14.5807 13.8622 2.4291 2.5077 1.94695C2.98134 1.22791 3.20508 0.511073 3.66622 0.288915C4.17737 0.0427289 4.94597 0.109041 5.53268 0.279205C11.0634 1.88342 15.4896 4.85035 17.5291 10.5229C19.0491 14.7504 19.3627 19.124 18.7362 23.5702C18.6468 24.2042 18.572 24.8404 18.5056 25.477C18.4959 25.57 18.5709 25.6716 18.6804 25.9698C19.2235 26.1808 19.8977 26.483 20.5968 26.708C29.2287 29.4864 32.3288 33.7643 32.2834 43.1219C33.1521 43.2573 34.0609 43.4093 34.9728 43.5394C40.3581 44.3077 45.0298 46.5369 48.888 50.3901C55.2328 56.7266 56.8271 65.7583 53.1601 74.2534C51.1639 78.8781 48.2533 82.8433 44.5213 86.1883C35.4647 94.3061 24.9768 98.989 12.71 99.3234C12.0658 99.3409 11.4217 99.3688 10.7785 99.4078C10.6904 99.413 10.6077 99.5114 10.1707 99.7946C11.9492 101.29 13.9731 102.075 15.9216 102.959C17.8388 103.828 19.7916 104.619 21.8913 105.513C20.9285 106.99 19.7963 107.192 18.6011 107.006C17.2267 106.793 15.7731 106.65 14.5355 106.081C11.2202 104.557 7.91605 102.969 4.77241 101.125C2.27002 99.6571 2.26464 97.9035 4.48499 96.3933C9.19725 93.1881 13.9334 90.0178 18.6826 86.8677C19.4266 86.3742 20.2902 86.0617 21.352 85.5412C21.8307 87.4226 20.8424 88.126 19.966 88.8319C16.8687 91.3265 13.75 93.7943 10.377 96.4815ZM2.96996 32.1289C7.36365 33.6513 11.2825 32.3191 13.3073 28.6851C9.61237 29.1259 6.147 29.4267 2.96996 32.1289ZM18.4686 51.6235C22.4091 52.5974 25.273 51.0216 26.7556 47.1833C23.5358 47.9206 20.6176 48.7384 18.4686 51.6235Z" fill="#FBB0B9"/>
</svg>
