<svg width="107" height="72" viewBox="0 0 107 72" fill="none" xmlns="http://www.w3.org/2000/svg">
<path d="M37.9046 37.4259C45.2629 54.0066 65.2434 61.7403 91.4269 58.1847C87.9937 54.8913 81.4337 56.6068 80.1103 50.9678C80.5923 50.3262 80.9035 49.6093 81.1459 49.6334C88.4153 50.3551 95.7026 50.9743 102.928 52.0312C105.373 52.389 106.921 54.7206 105.567 57.056C102.716 61.9728 99.9638 67.0781 94.497 71.3776C94.0985 68.1685 93.8203 65.929 93.6125 64.2543C85.9411 64.6584 78.4066 65.6806 70.9288 65.324C53.2718 64.482 39.3041 56.92 30.8315 40.8577C29.4894 38.3132 27.7188 37.616 25.1491 37.0657C14.3714 34.7569 6.40511 28.5929 1.81168 18.5706C0.141498 14.9261 -1.48901 10.8551 2.37325 6.00342C2.99421 13.6432 6.05529 19.1679 10.9345 23.6835C15.7136 28.1067 21.0516 31.3714 27.6553 31.6779C29.6922 26.1115 30.9854 20.5482 33.6822 15.7788C36.382 11.0039 40.014 6.5032 44.1017 2.8366C48.2981 -0.927808 53.8336 -0.553915 57.7438 2.33635C61.6464 5.22076 63.0044 10.1005 60.995 15.5977C57.8374 24.236 51.8317 30.4581 43.7407 34.7236C41.844 35.7236 39.8452 36.5337 37.9046 37.4259ZM36.2243 31.319C45.4064 28.1789 50.9421 22.6733 54.5216 14.9758C55.6892 12.4648 56.4216 9.68197 53.5354 7.8036C51.0593 6.19216 48.7403 7.54248 46.9504 9.2612C41.0294 14.9467 37.484 21.8521 36.2243 31.319Z" fill="#FFBEC6"/>
</svg>
