<svg width="114" height="43" viewBox="0 0 114 43" fill="none" xmlns="http://www.w3.org/2000/svg">
<path d="M113.581 0.509515C113.49 3.55328 113.954 5.21597 113.322 6.08358C110.969 9.31436 108.616 12.7053 105.608 15.2703C97.4912 22.1928 87.803 25.9952 77.4435 28.2299C59.8217 32.0313 42.2695 30.8763 24.7326 27.7113C22.8598 27.3734 20.9689 27.1315 19.0816 26.8806C18.9641 26.865 18.8044 27.1619 18.4609 27.5332C20.3021 29.9177 22.3233 32.2875 24.0406 34.86C24.953 36.2266 25.6727 37.909 25.8414 39.5165C25.9493 40.5453 25.149 42.2718 24.2947 42.6535C23.1579 43.1613 21.4804 42.9357 20.2119 42.5068C19.3338 42.2099 18.6972 41.0815 18.0501 40.2492C12.982 33.732 7.80602 27.2928 2.92563 20.6376C-1.25844 14.9318 -0.137559 12.0372 6.29958 9.69168C12.8874 7.29131 19.3468 4.53962 25.8935 2.02278C27.919 1.24414 30.0466 0.731046 32.3996 0.0133197C32.3549 4.12278 25.9973 9.64996 13.3268 16.5948C25.1655 20.5368 36.6773 21.6182 48.2262 22.2641C59.7841 22.9107 71.1913 21.7391 82.4431 18.8164C93.9882 15.8175 103.468 9.18246 113.581 0.509515Z" fill="#FFE5A4"/>
</svg>
