<svg width="100" height="100" viewBox="0 0 100 100" fill="none" xmlns="http://www.w3.org/2000/svg">
<path d="M21.4552 57.1529C23.9465 56.4 25.5659 55.0196 26.3133 53.0118C27.3098 53.5137 28.0572 53.5137 28.5555 53.0118C29.0538 52.5098 29.6766 52.1333 30.424 51.8824C33.1645 51.1294 35.7804 51.2549 38.2718 52.2588C41.0123 53.2627 43.5036 54.2667 45.7458 55.2706C45.2476 56.7765 45.123 58.2824 45.3721 59.7882C45.8704 61.2941 45.995 62.8 45.7458 64.3059C45.995 67.0667 45.8704 69.0745 45.3721 70.3294C44.8738 71.3333 44.1264 72.4627 43.1299 73.7176C42.3825 74.7216 41.386 75.851 40.1403 77.1059C39.1437 78.1098 38.5209 78.9882 38.2718 79.7412C36.777 79.7412 35.4067 80.1176 34.161 80.8706C33.1645 81.3725 31.9188 81.749 30.424 82C29.1783 82 27.9327 81.749 26.687 81.2471C25.4413 80.4941 24.1956 80.4941 22.95 81.2471C21.206 79.7412 19.5867 78.2353 18.0918 76.7294C16.8462 74.9725 15.4759 73.4667 13.9811 72.2118C13.9811 71.2078 13.6074 70.0784 12.86 68.8235C12.1126 67.5686 11.3652 66.3137 10.6178 65.0588C9.87039 63.8039 9.24755 62.549 8.74928 61.2941C8.50015 60.0392 8.74928 58.9098 9.49669 57.9059C8.25101 56.4 7.62817 54.8941 7.62817 53.3882C7.62817 51.8824 7.87731 50.251 8.37558 48.4941C8.87385 46.7373 9.37212 44.9804 9.87039 43.2235C10.6178 41.4667 10.9915 39.8353 10.9915 38.3294C12.4863 37.0745 13.732 35.6941 14.7285 34.1882C15.7251 32.6824 16.8462 31.302 18.0918 30.0471C20.3341 27.2863 23.0745 25.1529 26.3133 23.6471C29.552 21.8902 32.5417 20.0078 35.2822 18C36.2787 18.251 36.9015 18.6275 37.1507 19.1294C37.6489 19.6314 38.5209 19.7569 39.7666 19.5059C39.0192 20.7608 39.1437 21.7647 40.1403 22.5176C41.1368 23.0196 41.6351 23.6471 41.6351 24.4C41.8842 25.4039 41.5105 26.2824 40.514 27.0353C39.7666 27.7882 39.5174 28.7922 39.7666 30.0471C38.0226 30.549 36.6524 31.302 35.6559 32.3059C34.6593 33.3098 33.1645 33.9373 31.1714 34.1882C30.9223 35.1922 30.5486 36.0706 30.0503 36.8235C29.552 37.3255 29.0538 38.0784 28.5555 39.0824C27.3098 39.3333 26.5624 40.0863 26.3133 41.3412C26.3133 42.3451 25.6905 42.7216 24.4448 42.4706C23.9465 45.2314 23.0745 47.6157 21.8289 49.6235C20.5832 51.6314 20.4586 54.1412 21.4552 57.1529ZM84.2372 23.6471C84.7354 24.651 84.86 25.7804 84.6109 27.0353C84.6109 28.2902 84.86 29.5451 85.3583 30.8C84.6109 31.5529 83.6143 32.1804 82.3687 32.6824C81.3721 33.1843 80.7493 34.1882 80.5001 35.6941C77.5105 36.698 75.3929 38.2039 74.1472 40.2118C72.9015 41.9686 71.7804 43.4745 70.7839 44.7294C69.5382 46.2353 68.2925 47.8667 67.0469 49.6235C66.0503 51.3804 66.1749 53.2627 67.4206 55.2706C68.9154 55.5216 70.5347 55.3961 72.2787 54.8941C74.2718 54.1412 76.3894 53.6392 78.6316 53.3882C80.8738 53.1373 82.9915 53.2627 84.9846 53.7647C87.2268 54.0157 89.2199 55.1451 90.9638 57.1529C90.9638 59.4118 91.0884 61.7961 91.3375 64.3059C91.8358 66.5647 91.7112 68.698 90.9638 70.7059C90.4655 72.7137 89.3444 74.0941 87.6005 74.8471C85.8565 75.6 84.7354 76.7294 84.2372 78.2353C82.9915 78.7373 81.7458 78.9882 80.5001 78.9882C79.5036 78.7373 78.3825 78.4863 77.1368 78.2353C76.1403 78.7373 74.1472 78.3608 71.1576 77.1059C68.4171 75.6 66.424 74.5961 65.1783 74.0941L60.3202 72.2118C58.078 70.2039 56.4586 68.5725 55.4621 67.3176C55.4621 66.0627 55.3375 64.9333 55.0884 63.9294C54.8392 62.9255 54.9638 61.9216 55.4621 60.9176C54.2164 59.6627 53.7181 57.9059 53.9673 55.6471C54.4655 53.1373 54.0918 51.3804 52.8462 50.3765C53.3444 48.6196 53.9673 46.9882 54.7147 45.4824C55.4621 43.9765 55.9604 42.3451 56.2095 40.5882C58.2026 38.8314 59.8219 37.0745 61.0676 35.3176C62.5624 33.5608 63.9327 31.5529 65.1783 29.2941C67.6697 27.7882 68.9154 26.7843 68.9154 26.2824C68.9154 25.7804 69.1645 25.4039 69.6628 25.1529C73.3998 23.898 76.1403 23.1451 77.8842 22.8941C79.8773 22.6431 81.995 22.8941 84.2372 23.6471Z" fill="#343333"/>
</svg>
