<svg width="100" height="100" viewBox="0 0 100 100" fill="none" xmlns="http://www.w3.org/2000/svg">
<path d="M77.8095 42.8471C75.3181 43.6 73.6988 44.9804 72.9514 46.9882C71.9548 46.4863 71.2074 46.4863 70.7091 46.9882C70.2109 47.4902 69.588 47.8667 68.8406 48.1176C66.1001 48.8706 63.4842 48.7451 60.9929 47.7412C58.2524 46.7373 55.761 45.7333 53.5188 44.7294C54.0171 43.2235 54.1417 41.7176 53.8925 40.2118C53.3943 38.7059 53.2697 37.2 53.5188 35.6941C53.2697 32.9333 53.3943 30.9255 53.8925 29.6706C54.3908 28.6667 55.1382 27.5373 56.1347 26.2824C56.8821 25.2784 57.8787 24.149 59.1244 22.8941C60.1209 21.8902 60.7437 21.0118 60.9929 20.2588C62.4877 20.2588 63.8579 19.8824 65.1036 19.1294C66.1001 18.6275 67.3458 18.251 68.8406 18C70.0863 18 71.332 18.251 72.5777 18.7529C73.8233 19.5059 75.069 19.5059 76.3147 18.7529C78.0586 20.2588 79.678 21.7647 81.1728 23.2706C82.4185 25.0275 83.7887 26.5333 85.2835 27.7882C85.2835 28.7922 85.6572 29.9216 86.4046 31.1765C87.152 32.4314 87.8995 33.6863 88.6469 34.9412C89.3943 36.1961 90.0171 37.451 90.5154 38.7059C90.7645 39.9608 90.5154 41.0902 89.768 42.0941C91.0136 43.6 91.6365 45.1059 91.6365 46.6118C91.6365 48.1176 91.3873 49.749 90.8891 51.5059C90.3908 53.2627 89.8925 55.0196 89.3943 56.7765C88.6469 58.5333 88.2732 60.1647 88.2732 61.6706C86.7783 62.9255 85.5327 64.3059 84.5361 65.8118C83.5396 67.3176 82.4185 68.698 81.1728 69.9529C78.9306 72.7137 76.1901 74.8471 72.9514 76.3529C69.7126 78.1098 66.723 79.9922 63.9825 82C62.986 81.749 62.3631 81.3725 62.114 80.8706C61.6157 80.3686 60.7437 80.2431 59.4981 80.4941C60.2455 79.2392 60.1209 78.2353 59.1244 77.4824C58.1278 76.9804 57.6296 76.3529 57.6296 75.6C57.3804 74.5961 57.7541 73.7176 58.7507 72.9647C59.4981 72.2118 59.7472 71.2078 59.4981 69.9529C61.242 69.451 62.6123 68.698 63.6088 67.6941C64.6053 66.6902 66.1001 66.0627 68.0932 65.8118C68.3424 64.8078 68.7161 63.9294 69.2143 63.1765C69.7126 62.6745 70.2109 61.9216 70.7091 60.9176C71.9548 60.6667 72.7022 59.9137 72.9514 58.6588C72.9514 57.6549 73.5742 57.2784 74.8199 57.5294C75.3181 54.7686 76.1901 52.3843 77.4358 50.3765C78.6815 48.3686 78.806 45.8588 77.8095 42.8471ZM15.0275 76.3529C14.5292 75.349 14.4046 74.2196 14.6538 72.9647C14.6538 71.7098 14.4046 70.4549 13.9064 69.2C14.6538 68.4471 15.6503 67.8196 16.896 67.3176C17.8925 66.8157 18.5154 65.8118 18.7645 64.3059C21.7541 63.302 23.8718 61.7961 25.1174 59.7882C26.3631 58.0314 27.4842 56.5255 28.4808 55.2706C29.7264 53.7647 30.9721 52.1333 32.2178 50.3765C33.2143 48.6196 33.0898 46.7373 31.8441 44.7294C30.3493 44.4784 28.7299 44.6039 26.986 45.1059C24.9929 45.8588 22.8752 46.3608 20.633 46.6118C18.3908 46.8627 16.2732 46.7373 14.2801 46.2353C12.0379 45.9843 10.0448 44.8549 8.30083 42.8471C8.30083 40.5882 8.17627 38.2039 7.92713 35.6941C7.42886 33.4353 7.55343 31.302 8.30083 29.2941C8.7991 27.2863 9.92021 25.9059 11.6642 25.1529C13.4081 24.4 14.5292 23.2706 15.0275 21.7647C16.2732 21.2627 17.5188 21.0118 18.7645 21.0118C19.761 21.2627 20.8821 21.5137 22.1278 21.7647C23.1244 21.2627 25.1174 21.6392 28.1071 22.8941C30.8475 24.4 32.8406 25.4039 34.0863 25.9059L38.9444 27.7882C41.1866 29.7961 42.806 31.4275 43.8026 32.6824C43.8026 33.9373 43.9271 35.0667 44.1763 36.0706C44.4254 37.0745 44.3008 38.0784 43.8026 39.0824C45.0482 40.3373 45.5465 42.0941 45.2974 44.3529C44.7991 46.8627 45.1728 48.6196 46.4185 49.6235C45.9202 51.3804 45.2974 53.0118 44.55 54.5176C43.8026 56.0235 43.3043 57.6549 43.0552 59.4118C41.0621 61.1686 39.4427 62.9255 38.197 64.6824C36.7022 66.4392 35.332 68.4471 34.0863 70.7059C31.595 72.2118 30.3493 73.2157 30.3493 73.7176C30.3493 74.2196 30.1001 74.5961 29.6019 74.8471C25.8648 76.102 23.1244 76.8549 21.3804 77.1059C19.3873 77.3569 17.2697 77.1059 15.0275 76.3529Z" fill="#343333"/>
</svg>
