<svg width="144" height="93" viewBox="0 0 144 93" fill="none" xmlns="http://www.w3.org/2000/svg">
<path d="M52.5264 43.0356C64.3019 63.0014 91.1625 75.9229 124.484 77.6956C119.599 73.2998 111.364 73.7689 108.882 67.2358C109.416 66.6304 109.72 65.9043 110.036 65.9839C119.522 68.3684 129.016 70.6433 138.491 73.3893C141.698 74.3189 144.016 77.2384 142.588 79.5292C139.581 84.3523 136.727 89.4056 130.258 92.9747C129.303 89.3341 128.637 86.7935 128.139 84.8936C118.289 83.6681 108.7 83.157 98.9953 81.1314C76.0803 76.3484 57.0073 64.9282 43.864 45.2934C41.7819 42.1829 39.4 41.0248 36.0065 39.855C21.7731 34.9479 10.6411 26.3847 3.33517 14.2844C0.678673 9.88436 -1.98512 5.02055 2.33656 0.49015C4.18627 9.08578 8.89666 15.8713 15.8163 21.9358C22.5939 27.8762 29.9344 32.6556 38.5035 34.4352C40.3702 28.7152 41.277 22.8365 44.105 18.1431C46.9362 13.4441 51.0087 9.25218 55.784 6.08325C60.6863 2.82975 67.8852 4.45096 73.3307 8.50432C78.7655 12.5495 81.1884 18.2495 79.3478 23.8988C76.4554 32.7761 69.554 38.3567 59.6915 41.3157C57.3796 42.0095 54.9098 42.4707 52.5264 43.0356ZM49.519 35.9064C60.9447 34.4315 67.3375 29.5419 70.9037 21.7984C72.067 19.2723 72.631 16.3504 68.6466 13.6409C65.2283 11.3165 62.4191 12.3061 60.3436 13.819C53.478 18.8239 49.8472 25.6976 49.519 35.9064Z" fill="#D9F6F1"/>
</svg>
