<svg width="120" height="113" viewBox="0 0 120 113" fill="none" xmlns="http://www.w3.org/2000/svg">
<path d="M9.98946 78.5036C10.1207 79.2211 10.0856 79.5482 10.2297 79.7434C21.9269 95.5895 37.2721 105.517 57.0014 108.065C62.014 108.712 67.04 108.045 71.8678 106.331C82.279 102.635 88.7897 93.1032 88.3936 82.0978C88.1886 76.3995 87.0944 70.9808 83.4928 66.2911C80.8047 66.1501 78.1467 66.1798 75.5387 65.8348C71.4237 65.2903 67.9304 63.4801 65.5107 59.9723C63.6903 57.3333 63.3905 54.6637 64.8029 52.9982C66.585 50.8966 69.1044 50.6906 71.3057 51.6403C74.385 52.969 77.2975 54.7644 80.0917 56.6415C81.9045 57.8592 83.3793 59.5786 84.9704 61.0408C95.1588 58.5145 98.6797 48.3201 93.2388 36.9634C91.7544 36.7138 90.1494 36.5437 88.5955 36.1648C83.0025 34.8008 78.5234 31.8698 76.0778 26.5068C75.1588 24.4915 74.6793 22.2108 76.3817 20.2285C77.6959 18.6982 80.3067 18.4592 82.9943 19.7068C87.2636 21.6885 90.4445 24.9741 93.2684 28.6338C94.252 29.9085 95.1488 31.25 96.0434 32.5026C111.93 29.1861 121.925 13.7175 114.175 0.159175C115.358 0.183742 116.356 -0.0807207 116.951 0.292996C117.612 0.707286 118.097 1.64971 118.329 2.45662C120.511 10.0632 120.3 17.3824 115.196 23.9064C111.392 28.7684 106.535 32.3342 100.905 34.8599C100.102 35.22 99.3076 35.5985 98.5185 35.9874C98.4033 36.0441 98.34 36.2057 98.0733 36.5513C98.2255 37.3374 98.3675 38.3427 98.6175 39.3204C101.704 51.3931 98.9978 58.1296 88.0816 64.9259C88.5599 66.0353 89.0483 67.2035 89.5644 68.3593C92.6125 75.1848 93.4393 82.2497 91.7819 89.5572C89.0563 101.574 79.7191 110.039 67.1552 111.992C60.3156 113.055 53.5735 112.572 46.9517 110.68C30.8818 106.089 17.7591 97.3188 8.39183 83.297C7.89995 82.5607 7.39612 81.832 6.88001 81.1125C6.80932 81.0138 6.63442 80.9896 5.98524 80.6887C5.54777 83.8516 6.11569 86.7803 6.51449 89.693C6.90691 92.5589 7.41668 95.4088 7.91345 98.5053C5.49092 98.4666 4.42763 97.2974 3.76845 95.7717C3.01055 94.0171 2.11312 92.2218 1.86879 90.3662C1.21438 85.3952 0.643254 80.3898 0.486921 75.384C0.362439 71.3994 2.39792 70.1096 5.77948 71.5866C12.9563 74.721 20.1099 77.9089 27.2495 81.1266C28.368 81.6307 29.3636 82.4064 30.7461 83.2604C28.9083 85.1941 27.367 84.5595 25.9044 84.0569C20.7363 82.2806 15.5834 80.4597 9.98946 78.5036ZM79.4114 22.7877C80.8567 29.012 85.2743 32.5947 90.9827 32.2897C87.7656 28.3151 84.8795 24.5049 79.4114 22.7877ZM68.0826 55.0816C69.834 60.3773 73.763 62.5547 79.3121 61.4696C76.098 58.2646 73.0109 55.4693 68.0826 55.0816Z" fill="#FFEAB6"/>
</svg>
