<svg width="123" height="56" viewBox="0 0 123 56" fill="none" xmlns="http://www.w3.org/2000/svg">
<g filter="url(#filter0_d_2064_43398)">
<path d="M62.6106 35.1214C65.7403 35.1214 67.5813 37.3306 68.1336 41.749C68.1796 41.9791 68.2256 42.3933 68.2716 42.9917C68.3637 43.544 68.4327 43.9812 68.4788 44.3034C68.5248 44.6256 68.5938 44.8787 68.6859 45.0628C68.6859 45.2469 68.7319 45.431 68.8239 45.6151C68.962 45.9833 69.1921 46.1674 69.5143 46.1674C70.3888 46.1674 71.5164 45.9373 72.8971 45.477C74.2779 45.0168 75.0373 44.7866 75.1754 44.7866C76.5561 44.7866 77.2465 45.477 77.2465 46.8578C77.2465 47.8703 76.5561 48.6067 75.1754 49.067C72.69 49.8954 70.757 50.3096 69.3762 50.3096C66.3846 50.3096 64.5897 47.6402 63.9913 42.3013C63.7152 40.2762 63.2549 39.2637 62.6106 39.2637C61.2298 39.2637 59.4809 40.8745 57.3638 44.0963C56.5813 45.2929 55.5458 46.3975 54.2571 47.4101C52.9684 48.4226 51.6567 48.9289 50.3219 48.9289C48.9872 48.9289 47.9287 48.4686 47.1462 47.5481C46.3638 46.6276 45.8575 45.7532 45.6274 44.9247C45.3513 44.0042 44.914 42.0021 44.3157 38.9185C43.7174 35.8348 43.3032 34.2009 43.073 34.0168C42.8889 33.8327 42.7278 33.7407 42.5898 33.7407C41.9454 33.7407 41.3701 34.1549 40.8638 34.9833C40.4036 35.7658 39.8743 36.8704 39.276 38.2971C38.6777 39.7239 38.1023 41.1967 37.55 42.7155C37.0438 44.1883 36.6295 45.2929 36.3074 46.0293C35.9852 46.7197 35.548 47.5251 34.9957 48.4456C33.9831 50.1485 32.6024 51 30.8534 51C29.6568 51 28.6442 50.5858 27.8158 49.7573C26.9873 48.9289 26.343 47.8703 25.8827 46.5816C25.0543 44.0042 24.6171 41.3808 24.571 38.7114C24.571 35.9959 24.2949 33.9248 23.7426 32.498C23.2363 31.0252 22.615 30.2888 21.8786 30.2888C19.4853 30.2888 17.6903 31.7616 16.4937 34.7072C15.9414 36.134 15.343 38.1591 14.6987 40.7825C13.7782 44.3264 11.592 46.8347 8.14016 48.3075C7.40376 48.7218 6.64435 48.9289 5.86193 48.9289C4.48118 48.9289 3.79081 48.2385 3.79081 46.8578C3.79081 45.9833 4.48118 45.2699 5.86193 44.7176C6.41422 44.4875 6.71339 44.3724 6.75941 44.3724C6.85146 44.3264 7.03556 44.2343 7.31171 44.0963C7.58786 43.9582 7.77196 43.8661 7.86401 43.8201C7.95606 43.7281 8.11714 43.613 8.34727 43.4749C8.62342 43.2908 8.80752 43.1297 8.89957 42.9917C9.03764 42.8076 9.19873 42.6005 9.38283 42.3703C9.61295 42.1402 9.77404 41.9101 9.86609 41.68C10.2343 40.9896 10.5565 40.0921 10.8326 38.9875C11.1088 37.8829 11.3619 36.9624 11.592 36.226C11.8221 35.4896 12.2594 34.362 12.9037 32.8432C13.5481 31.2783 14.2154 30.1047 14.9058 29.3223C15.5962 28.5399 16.5397 27.8265 17.7363 27.1821C18.979 26.4918 20.4748 26.1466 22.2238 26.1466C24.0187 26.1466 25.5376 27.1821 26.7802 29.2532C28.0689 31.2783 28.7133 34.385 28.7133 38.5733C28.7133 40.0461 28.8744 41.795 29.1965 43.8201C29.5647 45.8452 30.117 46.8578 30.8534 46.8578C31.2216 46.8578 31.6128 46.3745 32.0271 45.408C32.4413 44.3954 32.7865 43.544 33.0626 42.8536C33.3388 42.1172 33.6609 41.2427 34.0291 40.2302C35.4099 36.3181 36.7676 33.5796 38.1023 32.0147C39.4371 30.4039 40.9329 29.5984 42.5898 29.5984C44.5228 29.5984 45.9036 30.4729 46.732 32.2219C47.4224 33.7407 47.9056 35.2365 48.1818 36.7093C49.1023 42.0942 49.7697 44.7866 50.1839 44.7866C51.5646 44.7866 53.3136 43.1758 55.4307 39.954C56.2131 38.7574 57.2487 37.6528 58.5374 36.6402C59.8261 35.6277 61.1838 35.1214 62.6106 35.1214ZM98.2799 50.3096C95.8405 50.3096 93.9535 49.205 92.6188 46.9958C91.3301 44.7866 90.6858 42.2553 90.6858 39.4017C90.6858 37.9289 91.3761 37.1925 92.7569 37.1925C94.1376 37.1925 94.828 38.021 94.828 39.6779C94.828 41.3348 95.1502 42.8306 95.7945 44.1653C96.4389 45.5 97.2213 46.1674 98.1418 46.1674C99.1083 46.1674 100.282 45.9373 101.663 45.477C103.043 45.0168 103.803 44.7866 103.941 44.7866C105.322 44.7866 106.012 45.477 106.012 46.8578C106.012 47.8703 105.322 48.6067 103.941 49.067C101.456 49.8954 99.5686 50.3096 98.2799 50.3096ZM84.4724 5.57345L84.4034 6.74709C83.8511 12.2701 83.4829 16.3663 83.2988 19.0357C83.1607 21.7052 83.0916 24.9269 83.0916 28.701C83.0916 32.429 83.2067 34.8683 83.4368 36.0189C84.5414 33.5796 86.4285 31.3244 89.0979 29.2532C91.7673 27.1821 95.0581 26.1466 98.9702 26.1466C100.351 26.1466 101.041 26.8369 101.041 28.2177C101.041 29.5984 100.351 30.2888 98.9702 30.2888C97.0832 30.2888 95.3343 30.634 93.7234 31.3244C92.1585 32.0147 90.9159 32.8662 89.9954 33.8787C88.2464 35.8118 87.1418 37.5377 86.6816 39.0565C86.5895 39.3327 86.4285 39.931 86.1983 40.8515C86.0142 41.726 85.8762 42.3013 85.7841 42.5774C85.7381 42.8996 85.577 43.3138 85.3008 43.8201C84.8406 44.6946 84.1042 45.1318 83.0916 45.1318C82.1251 45.1318 81.1816 43.613 80.2611 40.5754C79.3866 37.4917 78.9494 34.7532 78.9494 32.3599C78.9494 29.9666 78.9494 27.8265 78.9494 25.9395C78.9954 24.0064 79.0184 22.4876 79.0184 21.383C79.0645 20.2324 79.1565 18.8286 79.2946 17.1717C79.4327 15.5148 79.5017 14.4332 79.5017 13.927C79.5938 11.7638 79.8699 8.95628 80.3302 5.50442C80.4682 4.1697 81.1586 3.50234 82.4013 3.50234C83.782 3.50234 84.4724 4.19271 84.4724 5.57345ZM115.336 45.7532C116.072 45.7532 116.832 46.0753 117.614 46.7197C118.397 47.364 118.788 48.0544 118.788 48.7908C118.788 49.5272 118.466 50.0795 117.821 50.4477C117.223 50.8159 116.556 51 115.819 51C115.083 51 114.462 50.6778 113.955 50.0335C113.495 49.3431 113.265 48.6067 113.265 47.8243C113.265 46.4435 113.955 45.7532 115.336 45.7532Z" fill="url(#paint0_linear_2064_43398)"/>
</g>
<defs>
<filter id="filter0_d_2064_43398" x="0.0777771" y="0.723045" width="122.423" height="54.924" filterUnits="userSpaceOnUse" color-interpolation-filters="sRGB">
<feFlood flood-opacity="0" result="BackgroundImageFix"/>
<feColorMatrix in="SourceAlpha" type="matrix" values="0 0 0 0 0 0 0 0 0 0 0 0 0 0 0 0 0 0 127 0" result="hardAlpha"/>
<feOffset dy="0.934087"/>
<feGaussianBlur stdDeviation="1.8565"/>
<feComposite in2="hardAlpha" operator="out"/>
<feColorMatrix type="matrix" values="0 0 0 0 0.150977 0 0 0 0 0.150977 0 0 0 0 0.150977 0 0 0 0.25 0"/>
<feBlend mode="normal" in2="BackgroundImageFix" result="effect1_dropShadow_2064_43398"/>
<feBlend mode="normal" in="SourceGraphic" in2="effect1_dropShadow_2064_43398" result="shape"/>
</filter>
<linearGradient id="paint0_linear_2064_43398" x1="126.38" y1="29.2804" x2="-14.146" y2="48.0823" gradientUnits="userSpaceOnUse">
<stop offset="0.23417" stop-color="#FFEAB6"/>
<stop offset="0.435075" stop-color="#F7DBC2"/>
<stop offset="0.623788" stop-color="#D2FCD8"/>
<stop offset="0.739956" stop-color="#D8DEF2"/>
</linearGradient>
</defs>
</svg>
